<?xml version="1.0" encoding="utf-8"?>
<!-- Generator: Adobe Illustrator 27.5.0, SVG Export Plug-In . SVG Version: 6.00 Build 0)  -->
<svg version="1.1" id="Layer_1" xmlns="http://www.w3.org/2000/svg" xmlns:xlink="http://www.w3.org/1999/xlink" x="0px" y="0px"
	 viewBox="0 0 512 512" style="enable-background:new 0 0 512 512;" xml:space="preserve">
<g>
	<path d="M124.8,0C212,0,299.2,0,386.5,0c17.2,2.7,34,6.8,49.3,15.3c47.2,26.2,74.5,66.2,75.5,120.4c1.5,80,0.4,160.1,0.3,240.2
		c0,17.9-3.8,35.2-11.5,51.2c-26.2,54.8-69.7,84-130.8,84.5c-75.7,0.6-151.5,0.2-227.2,0.1c-6.7,0-13.3,0-19.9-1
		c-49-7.5-85-33.2-108.1-77.2c-7.7-14.8-11.6-30.7-14.2-47.1c0-87.2,0-174.5,0-261.7c0.5-2.6,1.1-5.2,1.5-7.8
		C10,70.7,35.3,36.7,76.9,14.6C91.9,6.7,108.1,2.6,124.8,0z M255.3,480.3C255.3,480.3,255.3,480.3,255.3,480.3
		c39.8,0,79.6,0.1,119.4,0c20.5-0.1,39.4-6.2,56.3-17.7c29.4-19.8,48-47.5,48.6-82.9c1.4-81.5,0.6-163.1,0.4-244.7
		c0-17.7-5.1-34.3-14.3-49.3C443.5,49.3,411.1,31,368.3,31c-75.1,0-150.2,0-225.2,0c-6.6,0-13.3,0.3-19.9,1.1
		c-49.8,6.7-90.9,52.2-92,102.6c-0.5,21.3-0.3,42.6-0.2,63.9c0,58.6,0,117.2,0.2,175.8c0,20.4,6,39.1,17.3,56
		c20.8,31.1,49.9,48.7,87.6,49.6C175.7,481,215.5,480.3,255.3,480.3z"/>
	<path d="M255.4,114.7c78,1,140.8,61.8,140.9,140.8c0.2,78-61.6,140.8-140.5,140.9c-78,0.2-140.8-61.6-140.9-140.5
		C114.7,177.9,176.4,116.1,255.4,114.7z M365.1,256c0.2-60-49.1-109.6-109.1-109.8c-60-0.2-109.7,49-110,109
		c-0.3,60.2,49.1,110,109.3,110.1C315.5,365.3,365,316,365.1,256z"/>
	<path d="M404.2,150.2c-23.7-0.1-43.2-19.8-43-43.5c0.2-23.4,19.9-43,43.2-42.9c23.2,0.1,43,19.8,43.1,43.1
		C447.6,130.4,427.8,150.2,404.2,150.2z M404.2,118.6c6.4,0,11.8-5.3,11.8-11.6c0-6.1-5.8-11.8-11.9-11.7
		c-6.1,0.1-11.3,5.4-11.4,11.5C392.7,113.4,397.8,118.6,404.2,118.6z"/>
</g>
</svg>
