<?xml version="1.0" encoding="utf-8"?>
<!-- Generator: Adobe Illustrator 27.5.0, SVG Export Plug-In . SVG Version: 6.00 Build 0)  -->
<svg version="1.1" id="Layer_1" xmlns="http://www.w3.org/2000/svg" xmlns:xlink="http://www.w3.org/1999/xlink" x="0px" y="0px"
	 viewBox="0 0 512 512" style="enable-background:new 0 0 512 512;" xml:space="preserve">
<g>
	<path d="M512,256.6c0,70.4,0,140.8,0,211.2c0,14.3-4.2,26.6-15.9,35.8c-7.7,6-16.6,8.3-25.9,8.3c-43.2,0.2-86.4,0.1-129.7,0
		c-11.3,0-16.1-4.7-16.4-16.3c-0.3-11.3-0.1-22.6-0.1-34c0-47.4,0-94.7,0-142.1c0-2.8,0-5.7,0.4-8.5c1.3-8.6,5.3-12.2,14.1-12.2
		c14.9-0.1,29.8-0.1,44.7,0c4,0,6.1-0.9,6.6-5.5c1.4-12.6,3.3-25.1,5.1-37.6c0.7-4.5-0.5-6.6-5.6-6.5c-16.6,0.2-33.2,0.1-49.8,0.1
		c-10.3,0-15-3.8-15.3-14c-0.5-19-1.2-38.2,1-57.1c2.4-21.4,18.2-34.9,40.8-35.6c9.4-0.3,18.9-0.2,28.3-0.1c3.8,0.1,5.4-1.3,5.4-5.3
		c-0.1-10.8-0.1-21.5-0.1-32.3c0-2.6-0.2-4.9-3.7-5.1c-18.8-1-37.7-2.7-56.5-0.2c-36.6,4.8-61,30-65.2,66.9
		c-2.5,22.4-0.6,44.9-1.1,67.3c-0.1,3.2,0,6.4-1.8,9.3c-2.8,4.4-6.8,6.3-11.9,6.3c-14.5-0.1-29.1,0.1-43.6-0.1
		c-4.7-0.1-6.3,1.5-6.2,6.2c0.2,12.5,0.2,24.9,0,37.4c-0.1,4.4,1.4,6,5.9,6c14.3-0.2,28.7-0.1,43,0c9.8,0.1,14.5,4.8,14.6,14.7
		c0,61,0,121.9,0,182.9c0,11-5,15.5-16.9,15.5c-67.4,0-134.8,0-202.1,0c-6,0-12.1,0.4-18.1-0.6C14.1,508,0.9,493.2,0.1,470.9
		c-0.1-1.3,0-2.6,0-4c0-140.8,0-281.6,0-422.4c0-14.3,4-26.7,15.7-35.9C24.1,1.8,34,0,44.4,0C128,0,211.6,0,295.2,0
		c57.6,0,115.1,0,172.7,0c14.3,0,26.6,4.2,35.8,16c6.5,8.4,8.3,18.1,8.3,28.2C512,115,512,185.8,512,256.6z M25,255.8
		c0,71.3,0,142.7,0,214c0,11.9,4.9,17.1,16.1,17.1c66.8,0.1,133.6,0,200.4,0.1c4.9,0,6.6-1.6,6.6-6.5c-0.1-50.4-0.1-100.8,0-151.2
		c0-5.1-1.9-6.5-6.7-6.4c-13.6,0.2-27.2,0.1-40.8,0.1c-10.7,0-15.7-4.2-15.8-14.7c-0.3-22.8-0.3-45.7,0-68.5
		c0.2-10.3,5.1-14.5,15.3-14.6c13.8,0,27.6-0.2,41.3,0.1c4.8,0.1,6.8-1.4,6.6-6.4c-0.3-9.6-0.3-19.3,0-28.9
		c0.5-16.6,1.4-33.2,6.8-49.1c10.2-30.3,30.1-50.9,60.6-60.9c31.6-10.3,63.9-5.8,96-3.1c8.7,0.7,12.7,4.9,12.8,13.7
		c0.4,20.7,0.5,41.5,0,62.3c-0.2,10.1-5,13.8-15.3,14c-14.7,0.3-29.4-0.7-44.1,0.9c-9.8,1.1-14,4.3-15.3,14.1
		c-1.7,12.4-0.3,24.9-0.8,37.3c-0.2,4.8,1.7,6.2,6.3,6.1c16.6-0.2,33.2-0.1,49.8-0.1c13.4,0,18,5.4,16.2,18.7
		c-3,21.9-5.9,43.7-8.7,65.6c-1.3,9.8-5.3,13.4-15.4,13.5c-13.6,0.1-27.2,0.3-40.8-0.1c-5.7-0.1-7.5,1.5-7.5,7.3
		c0.3,31.5,0.1,63,0.1,94.6c0,18.7,0,37.4,0,56.1c0,3.6,0.5,6.2,5.1,6.2c39.6-0.1,79.3,0,118.9-0.2c8.4,0,13.5-5.6,14-14
		c0.1-1.7,0.1-3.4,0.1-5.1c0-141.2,0-282.3,0-423.5c0-2.3,0.1-4.5-0.2-6.8c-0.8-6.7-5.5-11.5-12.2-12.2c-2.6-0.3-5.3-0.2-7.9-0.2
		c-140.4,0-280.8,0-421.2,0c-2.5,0-4.9-0.1-7.4,0.1c-7.2,0.6-12.2,5.5-12.9,12.7C25,40.3,25,42.8,25,45.2
		C25,115.4,25,185.6,25,255.8z"/>
</g>
</svg>
