<?xml version="1.0" encoding="UTF-8"?>
<svg id="Layer_1" data-name="Layer 1" xmlns="http://www.w3.org/2000/svg" viewBox="0 0 945 239.23">
  <defs>
    <style>
      .cls-1 {
        fill: #203a70;
      }

      .cls-2 {
        fill: #091733;
      }
    </style>
  </defs>
  <g>
    <path class="cls-1" d="m175.87,217.76c-1.2-.56-2.41-1.11-3.58-1.71-14.71-7.58-27.71-18.63-37.58-31.96-1.07-1.44-2.11-2.91-3.1-4.4-2.1-3.14-3.98-6.41-5.73-9.74-2.67-5.07-4.98-10.33-6.81-15.79-.24-.71-.45-1.43-.67-2.15-12.56-9.1-23.68-20.07-32.9-32.55-9.81-13.27-17.49-28.21-22.52-44.31-4.39-14.08-6.76-29.05-6.76-44.56H10.47c0,31.99,7.77,62.18,21.44,88.86,8.3,16.2,18.78,31.1,31.07,44.31,34.76,37.33,103.58,62.98,158.2,64.25"/>
    <g>
      <path class="cls-2" d="m10.47,208.32h45.75c0-15.51,2.37-30.47,6.76-44.56-12.29-13.2-22.77-28.1-31.07-44.31-13.67,26.69-21.44,56.87-21.44,88.86Z"/>
      <path class="cls-2" d="m324.33,84.17c-3.2-9.26-7.64-18.02-13.21-26.08-1.04-1.51-2.12-2.99-3.24-4.45-9.91-12.9-22.8-23.58-37.29-30.89-15.07-7.6-31.32-11.48-48.3-11.54-.14,0-.29,0-.43,0h0c-.14,0-.29,0-.43,0-1.17,0-2.32.04-3.48.09.04,0,.08-.01.12-.02-55.4.74-119.9,26.09-155.08,63.87,5.02,16.1,12.71,31.03,22.52,44.31,9.25-12.52,20.41-23.54,33.03-32.65-3.36,10.58-5.08,21.6-5.08,32.81s1.68,21.95,4.95,32.39c.22.72.43,1.44.67,2.15,1.83,5.46,4.14,10.71,6.81,15.79,1.75,3.33,3.63,6.6,5.73,9.74,1,1.49,2.03,2.96,3.1,4.4,9.87,13.33,22.87,24.38,37.58,31.96,1.18.61,2.38,1.15,3.58,1.71,6.44,3.02,13.17,5.45,20.08,7.14,1.84.45,3.69.83,5.55,1.19,6.54,1.24,13.22,1.9,19.92,1.93.14,0,.29,0,.43,0h0c.14,0,.29,0,.43,0,8.61-.03,17.18-1.08,25.47-3.11,8.19-2.01,16.15-4.99,23.66-8.85,7.59-3.91,14.72-8.74,21.2-14.33.39-.34.78-.68,1.17-1.02.39-.35.78-.69,1.16-1.04.38-.35.76-.7,1.14-1.06.19-.18.38-.36.56-.53.56-.54,1.12-1.08,1.67-1.63.27-.27.55-.55.82-.83.18-.19.37-.37.55-.56,1.26-1.29,2.48-2.62,3.67-3.98.26-.3.52-.6.78-.9.17-.2.34-.39.51-.59.33-.39.67-.79.99-1.19.17-.2.33-.4.49-.6.33-.4.65-.81.97-1.21.64-.82,1.27-1.64,1.89-2.47,1.07-1.44,2.1-2.91,3.1-4.4,5.29-7.93,9.5-16.5,12.54-25.53,3.73-11.1,5.62-22.72,5.62-34.54s-1.99-24.07-5.93-35.44Zm-71.02-60.55c.23.07.45.15.68.22.02,0,.05.01.07.02.43.14.85.29,1.27.43.9.32,1.8.64,2.7.99.22.09.45.17.67.26.24.09.47.19.71.28.21.08.41.17.62.25.19.08.39.16.58.24.91.38,1.81.77,2.7,1.17.22.1.43.2.65.3.15.07.3.13.45.2.15.07.3.14.46.21.23.11.46.21.69.33.31.15.62.3.92.45.02.01.04.02.07.03.34.17.68.34,1.02.51.09.04.17.09.26.13.31.16.62.32.93.48.37.19.73.39,1.1.59.15.08.31.17.46.25.43.23.86.47,1.29.72.26.15.52.3.78.45.02.01.04.03.07.04.34.19.67.39,1,.59.41.24.82.49,1.23.74.1.06.2.12.3.19.29.18.58.36.86.54.02.01.04.02.05.03.33.21.66.42.98.63.07.04.15.09.22.14.27.18.55.36.82.54.13.08.25.17.38.25.23.15.46.31.69.47.17.11.33.23.5.34.2.14.39.27.59.41.17.12.33.23.49.35.22.16.45.32.67.49.15.11.31.22.46.34.62.45,1.23.92,1.84,1.39.19.15.38.29.57.44.24.19.49.38.73.58.26.21.52.42.77.62.06.05.12.1.18.15.28.23.56.46.83.69.66.55,1.31,1.11,1.96,1.69.15.13.29.26.44.39.56.5,1.12,1.01,1.67,1.52.17.16.33.31.5.47.19.17.37.35.56.53.09.08.18.17.26.26.26.25.52.5.78.76.21.21.42.42.63.63.23.23.45.45.67.68.25.26.5.51.75.77.23.24.46.48.69.73.3.32.59.63.88.96.14.15.27.3.41.45.28.31.55.62.83.93.18.21.37.42.55.63.03.04.07.07.1.11.04.05.09.1.13.15-6.96,1.71-14.28,3.19-21.85,4.4-2.14-5.11-4.57-9.95-7.27-14.47-4.93-8.25-10.54-15.06-16.74-20.32.27.08.53.17.8.26Zm-6.12,92.27h0c-.12-16.57-1.02-32.49-2.63-46.74,9.24-.56,18.36-1.48,27.2-2.74,5.41,14.8,8.46,31.73,8.84,49.48h0s-33.4,0-33.4,0Zm33.4,7.45c-.36,17.09-3.21,33.43-8.25,47.83-8.89-1.29-18.15-2.23-27.6-2.81,1.49-13.81,2.33-29.11,2.44-45.01h33.4Zm-17.74-75.84c2.21,3.7,4.23,7.64,6.04,11.78-8.22,1.12-16.69,1.94-25.26,2.45-.82-6.02-1.77-11.68-2.84-16.89-2.05-9.92-4.46-17.76-7.18-23.31-.17-.34-.33-.67-.5-.99,11.1,3.74,21.4,13,29.74,26.97Zm-58.88,68.38h0c.12-16.48,1.02-32.28,2.63-46.36,5.05.21,10.17.31,15.24.31s10.2-.1,15.25-.31c1.61,14.09,2.51,29.88,2.63,46.36h0s-35.76,0-35.76,0Zm35.76,7.45c-.11,15.8-.95,30.98-2.44,44.62-10.15-.42-20.73-.42-30.88,0-1.49-13.64-2.33-28.82-2.44-44.62h35.76Zm-17.88-104.68h0c.77,0,2.7,1.29,5.07,6.14,2.4,4.92,4.68,12.37,6.57,21.55,1.01,4.87,1.9,10.15,2.67,15.76-4.75.19-9.55.28-14.32.28s-9.56-.09-14.31-.28c.77-5.61,1.67-10.88,2.67-15.76,1.89-9.18,4.17-16.63,6.57-21.55,2.36-4.84,4.29-6.13,5.07-6.14Zm-24.44,9.27c2.81-2.23,5.7-4.1,8.68-5.53,1.48-.72,2.98-1.35,4.5-1.86-.17.32-.34.65-.5.99-2.71,5.55-5.12,13.4-7.17,23.31-1.08,5.22-2.03,10.88-2.85,16.89-8.57-.51-17.03-1.33-25.26-2.45,1.82-4.14,3.84-8.08,6.05-11.78,4.91-8.23,10.52-14.78,16.55-19.57Zm-.89,87.96h0s-33.41,0-33.41,0h0c.38-17.75,3.43-34.68,8.84-49.48,8.84,1.26,17.97,2.18,27.2,2.74-1.61,14.26-2.51,30.17-2.63,46.74Zm2.44,52.46c-9.45.58-18.71,1.52-27.6,2.81-5.04-14.4-7.88-30.73-8.25-47.82h33.41c.11,15.9.95,31.2,2.44,45.01Zm-53.48-114.75s.06-.07.1-.11c.18-.21.36-.42.55-.63.27-.31.55-.62.83-.93.13-.15.27-.3.41-.45.29-.32.58-.64.88-.96.23-.24.46-.49.69-.73.06-.06.12-.13.18-.19.27-.29.55-.57.83-.85.34-.35.69-.7,1.03-1.04.26-.26.52-.51.78-.76.09-.09.17-.17.26-.26.06-.06.12-.12.18-.17.2-.19.4-.38.6-.57.44-.42.89-.83,1.34-1.24.25-.23.5-.45.75-.67.05-.04.1-.09.14-.13.24-.22.49-.43.73-.65.09-.08.18-.16.28-.24.32-.28.64-.55.97-.83.32-.27.64-.53.96-.8.06-.05.11-.09.17-.13.32-.26.63-.52.95-.77.22-.17.44-.35.66-.52.26-.2.52-.4.78-.6.24-.19.48-.37.72-.55.23-.17.46-.35.69-.52.05-.04.1-.08.16-.11.14-.1.28-.21.42-.31,0,0,0,0,0,0,.26-.19.53-.38.79-.57.44-.32.89-.63,1.34-.94.24-.17.47-.33.71-.49.03-.02.06-.04.1-.07.13-.09.25-.17.38-.25.27-.18.54-.36.82-.54.07-.05.15-.1.22-.14.33-.22.66-.43.98-.63.02-.01.03-.02.05-.03.34-.22.69-.43,1.03-.64.05-.03.1-.07.16-.1.36-.22.72-.44,1.09-.66.73-.44,1.47-.87,2.21-1.28.06-.03.12-.07.18-.1.27-.15.55-.3.82-.46.53-.29,1.06-.58,1.6-.86.3-.16.6-.31.9-.47,0,0,.02,0,.03-.01.05-.02.1-.05.14-.07.4-.2.8-.4,1.2-.6.36-.18.72-.35,1.08-.52.1-.05.2-.1.31-.14.29-.14.58-.27.87-.41.67-.31,1.35-.62,2.03-.91.2-.09.4-.17.59-.26.2-.09.4-.17.6-.26,1.04-.43,2.08-.85,3.13-1.25.21-.08.42-.16.63-.24,1.3-.48,2.6-.94,3.92-1.37.23-.07.45-.15.68-.22.04-.01.08-.03.12-.04-5.63,4.77-10.75,10.89-15.33,18.14-.47.74-.96,1.43-1.41,2.19-1.04,1.74-2.01,3.57-2.97,5.41-1.28,2.48-2.51,5.02-3.65,7.65-.21.48-.44.93-.65,1.41-.91-.15-1.79-.32-2.67-.48-.86-.16-1.74-.32-2.61-.47-5.68-1.02-11.25-2.14-16.56-3.45.04-.05.09-.1.13-.15Zm-24.52,62.29c.45-12.57,3.19-24.7,8.06-36,2.85-6.62,6.42-12.96,10.7-18.93.19-.26.35-.54.54-.8.47.12.98.22,1.45.34,5.85,1.48,11.98,2.77,18.26,3.92,1.5.27,2.95.59,4.47.84-5.39,15.28-8.43,32.58-8.79,50.63h0s-34.7,0-34.7,0h0Zm15.4,57.34c-2.88-4.56-5.32-9.33-7.41-14.23-4.79-11.22-7.54-23.22-7.98-35.65h34.69c.35,17.41,3.19,34.12,8.22,48.99-2.31.39-4.57.83-6.82,1.27-3.38.67-6.72,1.38-10.01,2.13-2.63.61-5.29,1.19-7.83,1.87-1.01-1.43-1.93-2.91-2.86-4.38Zm54.28,42.35c-.47-.15-.93-.31-1.39-.46s-.92-.32-1.38-.49c-.23-.08-.46-.17-.69-.25-.46-.17-.91-.34-1.37-.51-.23-.09-.46-.17-.68-.27-1.14-.44-2.26-.91-3.38-1.4-.45-.19-.89-.39-1.34-.59-.22-.1-.44-.2-.66-.3s-.44-.2-.66-.31c-.13-.06-.26-.12-.39-.18-.31-.15-.62-.3-.93-.45-.03-.02-.06-.03-.1-.05-.36-.17-.72-.35-1.07-.53-.24-.12-.48-.24-.72-.37-.04-.02-.08-.04-.11-.06-.42-.21-.84-.43-1.26-.66-.21-.11-.43-.23-.65-.34-.23-.12-.45-.25-.68-.37-.2-.11-.4-.22-.6-.34-.03-.01-.05-.03-.08-.04-.27-.15-.54-.3-.81-.46-.07-.04-.13-.07-.2-.11-.27-.16-.55-.32-.82-.48,0,0,0,0,0,0-.17-.1-.33-.2-.5-.3-.27-.16-.53-.32-.8-.48-.16-.1-.32-.2-.49-.3-.24-.15-.48-.29-.71-.45-.13-.08-.25-.16-.38-.24-.19-.12-.38-.24-.57-.36-.23-.15-.46-.3-.69-.45-.13-.08-.25-.16-.37-.25-.33-.21-.65-.43-.97-.65-.48-.32-.96-.65-1.43-.99-.15-.11-.31-.22-.46-.32-.04-.03-.09-.06-.13-.09-.22-.15-.43-.31-.65-.46-.14-.1-.28-.2-.42-.3-.2-.14-.39-.29-.59-.44-.17-.12-.33-.25-.49-.37-.23-.17-.46-.34-.68-.52-.18-.14-.37-.28-.55-.42-.68-.52-1.34-1.05-2-1.6-.2-.16-.39-.32-.58-.48-.2-.16-.4-.33-.6-.5-.2-.17-.4-.34-.6-.52-.12-.1-.25-.21-.37-.32-.22-.19-.45-.39-.67-.59-.12-.1-.24-.21-.36-.32-.23-.2-.46-.41-.69-.62-.11-.1-.21-.19-.32-.29-.01,0-.02-.02-.03-.03-.29-.26-.57-.52-.85-.79-.33-.3-.65-.61-.97-.92-.37-.35-.74-.71-1.1-1.07-.27-.26-.53-.53-.8-.8-.07-.07-.14-.14-.2-.21-.28-.28-.55-.57-.83-.85-.04-.04-.08-.08-.12-.12-.25-.26-.49-.52-.74-.78-.27-.29-.53-.57-.79-.86-.13-.13-.25-.27-.37-.4-.53-.58-1.05-1.18-1.56-1.77-.12-.14-.24-.28-.36-.42-.21-.24-.42-.49-.62-.73-.05-.05-.09-.11-.14-.17,5.46-1.37,11.16-2.53,16.96-3.59,1.81-.33,3.58-.7,5.42-.99,2.31,5.72,4.96,11.11,7.94,16.1.46.76.95,1.45,1.41,2.19.55.87,1.13,1.67,1.7,2.51,4.09,6.04,8.55,11.27,13.42,15.44-.12-.04-.23-.07-.35-.11Zm-9.79-23.85c-1.81-3.03-3.44-6.26-4.98-9.59-.56-1.21-1.15-2.39-1.67-3.63-.03-.07-.06-.13-.09-.2,8.31-1.15,16.93-2.01,25.74-2.54.87,6.67,1.9,12.91,3.08,18.62,2.05,9.92,4.46,17.76,7.17,23.32.17.34.33.67.5.99-11.1-3.74-21.39-13-29.73-26.97Zm41,28.84h0c-.77,0-2.7-1.3-5.07-6.13-2.4-4.92-4.68-12.37-6.57-21.55-1.11-5.37-2.08-11.24-2.91-17.49,9.57-.38,19.52-.38,29.09,0-.83,6.26-1.8,12.12-2.91,17.49-1.89,9.18-4.17,16.63-6.57,21.55-2.36,4.84-4.3,6.13-5.07,6.13Zm11.26-1.87c.17-.32.33-.65.5-.99,2.71-5.55,5.12-13.4,7.18-23.32,1.18-5.71,2.21-11.96,3.07-18.62,8.8.53,17.42,1.38,25.74,2.54-2,4.75-4.25,9.24-6.75,13.42-8.34,13.97-18.63,23.23-29.74,26.97Zm66.42-34.61c-.23.27-.46.55-.69.82,0,0,0,.01-.01.01-.13.16-.27.32-.4.47-.55.64-1.1,1.26-1.66,1.89-.29.32-.58.64-.87.95h0c-.29.31-.59.63-.88.94-.04.05-.09.09-.13.14-.27.28-.54.56-.82.84-.07.07-.14.14-.21.22-.27.27-.53.54-.8.8-.03.04-.07.07-.11.11-.22.22-.44.44-.67.65-.11.1-.21.21-.32.31-.32.31-.64.62-.97.92-.28.27-.57.53-.85.79-.01.01-.02.02-.04.03-.1.09-.19.18-.29.26-.26.23-.51.46-.77.69-.03.03-.07.06-.11.09-.33.29-.67.59-1,.88-.01.01-.03.02-.04.03-.28.25-.57.49-.85.73-.16.14-.32.27-.48.4-.23.19-.46.38-.69.57-.06.05-.12.1-.19.15-.33.27-.66.53-.99.79-.32.26-.65.51-.97.76-.12.09-.23.18-.35.27-.24.19-.49.37-.73.56-.15.11-.29.22-.44.33-.31.23-.62.46-.94.69-.28.2-.56.4-.84.6-.07.05-.14.1-.21.15-.33.23-.66.46-.99.69-.08.05-.15.1-.23.16-.23.16-.45.31-.68.46-.18.12-.35.24-.53.36-.29.19-.58.38-.87.58-.04.03-.08.05-.12.08-.37.24-.73.47-1.1.7-.04.03-.09.05-.13.08-.29.18-.58.36-.87.54-.13.08-.25.15-.37.23-.32.19-.64.39-.96.58,0,0-.01,0-.02.01-.78.46-1.56.91-2.35,1.35-.03.02-.06.03-.09.05-.38.21-.77.42-1.16.63-.39.21-.77.41-1.16.62-.02.01-.04.02-.06.03-1.22.64-2.45,1.25-3.7,1.83-.21.1-.41.2-.62.29s-.42.19-.63.29c-.46.21-.93.42-1.4.62-.16.07-.33.14-.49.21-.21.09-.42.18-.63.27-2.54,1.08-5.13,2.04-7.75,2.91-.19.06-.37.12-.56.18,6.12-5.23,11.66-11.99,16.53-20.14,2.98-4.99,5.63-10.38,7.93-16.1,7.74,1.26,15.24,2.8,22.39,4.59-.02.02-.03.03-.04.05Zm4.96-6.48c-7.85-2.07-16.12-3.84-24.67-5.27,5.04-14.87,7.87-31.58,8.22-48.99h34.69c-.7,19.61-6.96,38.25-18.24,54.26Zm18.24-61.72h-34.69c-.37-18.05-3.4-35.35-8.79-50.63,8.41-1.4,16.52-3.11,24.19-5.1,11.94,16.34,18.57,35.49,19.29,55.73h0Z"/>
    </g>
  </g>
  <g>
    <polygon class="cls-2" points="748.99 165.4 748.99 132.55 808.78 132.55 808.78 94.57 748.99 94.57 748.99 64.29 809.97 64.29 809.97 25.02 698.69 25.02 698.69 204.67 809.48 204.67 809.48 165.4 748.99 165.4"/>
    <path class="cls-1" d="m435.56,206.75c-8.69,0-16.05-1.47-22.06-4.41-6.02-2.94-10.6-6.95-13.74-12.03-3.14-5.08-4.71-10.76-4.71-17.05,0-6.68,1.7-12.47,5.11-17.35,3.41-4.88,8.66-8.62,15.74-11.23,7.09-2.61,16.25-3.91,27.48-3.91h25.67v19.86h-20.46c-6.15,0-10.46,1-12.94,3.01-2.48,2.01-3.71,4.68-3.71,8.02s1.27,6.02,3.81,8.02c2.54,2.01,6.02,3.01,10.43,3.01,4.14,0,7.92-1.04,11.33-3.11,3.41-2.07,5.92-5.25,7.52-9.53l5.21,14.04c-2.01,7.49-5.92,13.14-11.73,16.95-5.82,3.81-13.47,5.72-22.97,5.72Zm32.09-1.8v-20.26l-2.61-5.01v-37.3c0-6.02-1.84-10.66-5.52-13.94-3.68-3.27-9.53-4.91-17.55-4.91-5.21,0-10.5.84-15.84,2.51-5.35,1.67-9.9,3.98-13.64,6.92l-12.84-25.87c6.15-4.01,13.54-7.12,22.16-9.33,8.63-2.21,17.21-3.31,25.77-3.31,17.65,0,31.32,4.05,41.02,12.13,9.69,8.09,14.54,20.76,14.54,38.01v60.37h-35.5Z"/>
    <path class="cls-1" d="m649.75,94.44c8.42,0,15.94,1.71,22.56,5.11,6.62,3.41,11.83,8.66,15.64,15.74,3.81,7.09,5.72,16.25,5.72,27.48v62.17h-38.11v-55.96c0-7.75-1.47-13.4-4.41-16.95-2.94-3.54-6.95-5.31-12.03-5.31-3.61,0-6.89.87-9.83,2.61-2.94,1.74-5.21,4.38-6.82,7.92-1.6,3.55-2.41,8.12-2.41,13.74v53.95h-38.11v-55.96c0-7.75-1.44-13.4-4.31-16.95-2.88-3.54-6.92-5.31-12.13-5.31-3.74,0-7.05.87-9.93,2.61-2.88,1.74-5.15,4.38-6.82,7.92-1.67,3.55-2.51,8.12-2.51,13.74v53.95h-38.11v-108.7h36.3v30.28l-7.22-8.62c4.01-7.75,9.49-13.6,16.45-17.55,6.95-3.94,14.71-5.92,23.26-5.92,9.76,0,18.35,2.51,25.77,7.52,7.42,5.01,12.4,12.8,14.94,23.37l-12.44-2.61c3.88-8.82,9.73-15.74,17.55-20.76,7.82-5.01,16.81-7.52,26.98-7.52Z"/>
    <path class="cls-2" d="m807.61,204.67l50.65-66.5-.81,21.96-48.61-65.69h43.53l27.24,38.85-16.27.81,28.88-39.66h40.88l-48.61,64.27v-21.15l50.03,67.11h-44.13l-28.48-41.49,16.27,2.23-28.67,39.26h-41.91Z"/>
  </g>
</svg>