<?xml version="1.0" encoding="utf-8"?>
<!-- Generator: Adobe Illustrator 27.5.0, SVG Export Plug-In . SVG Version: 6.00 Build 0)  -->
<svg version="1.1" id="Layer_1" xmlns="http://www.w3.org/2000/svg" xmlns:xlink="http://www.w3.org/1999/xlink" x="0px" y="0px"
	 viewBox="0 0 512 512" style="enable-background:new 0 0 512 512;" xml:space="preserve">
<style type="text/css">
	.st0{fill:#F5C700;}
	.st1{fill:#03247B;}
	.st2{fill:#CB0E33;}
</style>
<path class="st0" d="M256,512c31.3,0,61.3-5.6,89-15.9L367.3,256L345,15.9C317.3,5.6,287.3,0,256,0s-61.3,5.6-89,15.9L144.7,256
	L167,496.1C194.7,506.4,224.7,512,256,512z"/>
<path class="st1" d="M167,15.9C69.5,52.1,0,145.9,0,256s69.5,203.9,167,240.1V15.9z"/>
<path class="st2" d="M345,496.1c97.5-36.2,167-130,167-240.1S442.5,52.1,345,15.9V496.1z"/>
</svg>
