<?xml version="1.0" encoding="utf-8"?>
<!-- Generator: Adobe Illustrator 27.5.0, SVG Export Plug-In . SVG Version: 6.00 Build 0)  -->
<svg version="1.1" id="Layer_1" xmlns="http://www.w3.org/2000/svg" xmlns:xlink="http://www.w3.org/1999/xlink" x="0px" y="0px"
	 viewBox="0 0 512 512" style="enable-background:new 0 0 512 512;" xml:space="preserve">
<style type="text/css">
	.st0{clip-path:url(#SVGID_00000146479998460327612020000015305331689737410484_);}
	.st1{fill:#C8102E;}
	.st2{fill:#FFFFFF;}
	.st3{fill:#012169;}
</style>
<g>
	<defs>
		<circle id="SVGID_1_" cx="256" cy="256" r="256"/>
	</defs>
	<clipPath id="SVGID_00000057830432496691302010000012530006680582054038_">
		<use xlink:href="#SVGID_1_"  style="overflow:visible;"/>
	</clipPath>
	<g style="clip-path:url(#SVGID_00000057830432496691302010000012530006680582054038_);">
		<path class="st1" d="M307.2,511.9c-34.1,0-68.2,0-102.4,0c-2.4-2.3-1.8-5.3-1.8-8c0-55.1,0-110.3,0-165.4c0-8,0-15.9,0-23.9
			c0-5-0.6-5.5-5.7-5.6c-1.8,0-3.7,0-5.5,0c-146.1,0-292.1,0-438.2,0c-3.2,0-6.6,1-9.3-1.7c0-34.1,0-68.3,0-102.4
			c1.3-1.4,2.9-1.7,4.6-1.8c2.3,0,4.5,0,6.8,0c146.1,0,292.1,0,438.2,0c9.2,0,9.2,0,9.2-9c0-62,0-123.9,0-185.9c0-2.8-0.7-5.8,1.8-8
			c34.1,0,68.2,0,102.4,0c2.2,2,1.8,4.7,1.8,7.2c0,34.3,0,68.5,0,102.8c0,28.1,0,56.3,0,84.4c0,1.6,0,3.1,0,4.7c0,2.7,1.4,3.8,4,3.9
			c1.8,0,3.7,0,5.5,0c146.6,0,293.3,0,439.9,0c3.2,0,6.6-1,9.3,1.7c0,34.1,0,68.3,0,102.4c-1.3,1.4-2.9,1.7-4.6,1.8
			c-2.3,0-4.5,0-6.8,0c-146.1,0-292.1,0-438.2,0c-9.2,0-9.2,0-9.2,9c0,62,0,123.9,0,185.9C309,506.6,309.6,509.6,307.2,511.9z"/>
		<path class="st2" d="M307.2,511.9c0-66.7,0-133.4-0.1-200c0-3.9,1-4.8,4.8-4.8c152,0.1,303.9,0.1,455.9,0.1c0,11.4,0,22.8,0,34.1
			c-2.2,2.2-5,1.7-7.7,1.7c-70.9,0-141.8,0-212.9,0c37.9,18.9,75.5,37.8,113.1,56.6c33.7,16.8,67.4,33.7,101.1,50.5
			c2.4,1.2,4.9,2.3,6.5,4.7c0,6.3,0,12.5,0,18.8c-2.8,1.7-4.9-0.3-7.1-1.4c-35.8-17.9-71.7-35.8-107.5-53.7
			c-48.3-24.2-96.6-48.3-144.9-72.5c-4.2-2.1-8.4-3.1-13.1-3.1c-21,0.1-42,0.1-63,0c109.3,54.6,218.5,109.3,327.8,164
			c2.3,1.2,5.7,1.5,6,5.1c-38.1,0-76.2,0-114.3,0c-4.9-1.1-9.3-3.2-13.8-5.5c-96.2-48.2-192.5-96.3-288.7-144.4
			c-6.4-3.2-6.4-3.2-6.4,4c0,46.1,0,92.1,0,138.2c0,2.6,0.6,5.5-1.6,7.7C330,511.9,318.6,511.9,307.2,511.9z"/>
		<path class="st2" d="M204.9,0c0,66.7,0,133.4,0,200c0,5.5,0.8,4.7-4.7,4.7c-152,0-303.9,0-455.9,0c0-11.4,0-22.8,0-34.1
			c1.6-1.7,3.8-1.7,6-1.7c70.2,0,140.4,0,210.5,0c2,0,3.9,0.1,5.6,1.3c-45.9-22.6-91.7-45.6-137.5-68.5
			c-26.2-13.1-52.3-26.2-78.5-39.3c-2.3-1.1-4.6-2.2-6.1-4.5c0-6.3,0-12.5,0-18.8c2.4-1.6,4.4,0.1,6.3,1c15.5,7.7,31,15.5,46.6,23.3
			c68,34,136.1,68,204.1,102.1c4.7,2.4,9.4,3.5,14.7,3.5c19.3-0.2,38.7-0.1,58-0.1c1.8,0,3.7-0.1,4.8,0.2c-1.1-0.2-2.7-1.2-4.3-2
			C-33.5,113.3-141.4,59.4-249.2,5.4c-2.3-1.2-5.8-1.6-5.7-5.4c38.1,0,76.2,0,114.3,0c24.8,10.3,48.3,23.4,72.3,35.3
			C9.1,73.8,86.3,112.5,163.6,151.2c0.8,0.4,1.5,0.7,2.3,1.1c2,1.1,3.2,0.9,3.2-1.8c0-1.6,0-3.1,0-4.7c0-46.1,0-92.1,0-138.2
			c0-2.6-0.6-5.5,1.6-7.7C182.1,0,193.5,0,204.9,0z"/>
		<path class="st2" d="M767.8,204.8c-151.8,0-303.6,0-455.4,0.1c-4.2,0-5.3-0.9-5.3-5.2c0.2-66.5,0.1-133.1,0.1-199.6
			c11.4,0,22.7,0,34.1,0c1.5,1.4,1.8,3.1,1.8,5.1c0,47.2,0,94.5,0,141.7c0,0.9-0.1,1.7-0.3,2.5c-0.4,5.4,2.5,3.2,4.8,2
			c83.6-41.8,167.3-83.7,250.9-125.5c14.1-7.1,28.2-14.1,42.3-21.2c3.8-1.9,7.7-3.6,11.8-4.6c12.5,0,25,0,37.5,0
			c-0.1,3.2-2.9,3.6-4.9,4.5c-25.6,12.9-51.3,25.7-77,38.6C553.5,70.5,498.6,97.7,444,125.4c-27.6,14-55.4,27.8-83,41.8
			c-1.8,0.9-3.5,2-5.2,2.2c1.7-0.4,3.8-0.4,5.8-0.4c19.3,0,38.7-0.1,58,0.1c4.5,0,8.6-0.9,12.7-3C539.8,112.3,647.5,58.5,755.1,4.6
			C759,2.7,762.9,1.1,767,0c1.7,0.8,0.8,2.3,0.8,3.4c0.1,18.2,0,36.4,0,54.6c-1.2,1.4-2.9,2.3-4.5,3.1
			c-70.6,35.4-141.3,70.6-211.9,106c-1.8,0.9-3.5,2-5.5,2.4c2.3-0.5,4.6-0.5,6.9-0.1c69-1.1,138-0.2,207-0.4c2.8,0,5.8-0.7,8,1.8
			C767.8,182,767.8,193.4,767.8,204.8z"/>
		<path class="st2" d="M-255.8,307.1c151.8,0,303.6,0,455.4-0.1c4.2,0,5.3,0.9,5.3,5.2c-0.2,66.5-0.1,133.1-0.1,199.6
			c-11.4,0-22.7,0-34.1,0c-2.2-2.2-1.6-5-1.6-7.7c0-46.1,0-92.1,0-138.2c0-7.6,0-7.6-6.9-4.2C65.1,410.4-32,459-129.1,507.6
			c-3.7,1.9-7.5,3.2-11.5,4.3c-12.5,0-25,0-37.5,0c0.1-3.2,2.9-3.6,4.9-4.5c29.2-14.7,58.5-29.3,87.7-43.9
			C-5.1,423.2,75.4,383,155.7,342.8c-21.1,0.1-42.3,0.1-63.6,0c-4.2,0-8.1,0.8-11.9,2.7C-26.6,399-133.5,452.5-240.4,506
			c-4.7,2.3-9.3,4.8-14.5,5.9c-1.7-0.8-0.8-2.3-0.8-3.4c-0.1-17.9,0-35.8,0-53.8c1.3-2.8,4-3.9,6.6-5.1
			c48.3-24.2,96.6-48.3,144.9-72.5c22.9-11.4,45.7-22.9,68.9-34.5c-1.8,0.4-3.2,0.3-4.6,0.3c-69.4,0-138.7,0-208.1,0
			c-2.6,0-5.5,0.5-7.7-1.7C-255.8,329.9-255.8,318.5-255.8,307.1z"/>
		<path class="st3" d="M170.7,0c0,50.2,0,100.4,0,150.5c0,0.9,0,1.7,0,2.6c0.2,2.7-0.9,3.1-3.2,2c-8.5-4.3-17-8.5-25.6-12.8
			C49,95.7-44,49.1-137,2.6c-1.3-0.7-3-0.8-3.6-2.6C-36.8,0,67,0,170.7,0z"/>
		<path class="st3" d="M-140.6,511.9c11.5-6.7,23.7-12.2,35.6-18.1c90.4-45.2,180.8-90.4,271.2-135.6c4.5-2.3,4.5-2.3,4.5,2.8
			c0,50.3,0,100.6,0,150.9C67,511.9-36.8,511.9-140.6,511.9z"/>
		<path class="st3" d="M341.3,511.9c0-51.7,0-103.4,0-155.6c12.1,6,23.7,11.7,35.3,17.5c90.8,45.5,181.7,91,272.5,136.5
			c0.9,0.5,2.1,0.6,2.7,1.7C548.3,511.9,444.8,511.9,341.3,511.9z"/>
		<path class="st3" d="M341.5,151c0-1.6-0.1-3.1-0.1-4.7c0-48.8,0-97.5,0-146.3c100.4,0,200.7,0,301.1,0c0,3-2.7,3.4-4.5,4.3
			c-16.2,8.2-32.5,16.3-48.8,24.4C509.1,68.8,429,108.9,349,148.8C346.6,150,344.5,152,341.5,151z"/>
		<path class="st1" d="M-254.9,511.9c11.7-6.9,24-12.4,36.1-18.5C-118.4,443.1-17.9,393,82.6,342.8c1.7-0.8,3.2-1.5,5.1-1.5
			c23.5,0.1,46.9,0,70.4,0c0.6,0,1.3,0.1,2.2,0.1c-0.9,1.7-2.4,1.9-3.6,2.5C46,399.3-64.8,454.7-175.5,510.2
			c-0.9,0.5-2.2,0.6-2.6,1.7C-203.7,511.9-229.3,511.9-254.9,511.9z"/>
		<path class="st1" d="M767,0c-11.7,6.9-24,12.4-36.1,18.5C630.4,68.8,529.8,119,429.3,169.3c-1.5,0.8-3,1.4-4.7,1.4
			c-23.7-0.1-47.5,0-71.2,0c-0.4,0-0.8-0.1-1.9-0.3c12.1-6.1,23.5-11.9,34.9-17.6c15.9-8,31.7-15.9,47.6-23.8
			C518.4,86.5,603,44.1,687.5,1.7c0.9-0.5,2.1-0.6,2.7-1.7C715.8,0,741.4,0,767,0z"/>
		<path class="st3" d="M767.8,454.8c-10.4-4.1-20.1-9.6-30.1-14.6c-64.3-32-128.4-64.2-192.6-96.3c-1-0.5-2-1.2-2.8-2.5
			c75.2,0,150.4,0,225.6,0C767.8,379.1,767.8,416.9,767.8,454.8z"/>
		<path class="st3" d="M-255.8,341.3c74.9,0,149.8,0,224.7,0c0.1,0.3,0.3,0.6,0.4,0.9c-75,37.5-150.1,75.1-225.1,112.6
			C-255.8,416.9-255.8,379.1-255.8,341.3z"/>
		<path class="st3" d="M-255.8,58c9.1,3.6,17.6,8.5,26.4,12.8c65.4,32.7,130.8,65.4,196.3,98.1c0.7,0.4,1.4,0.8,3.1,1.7
			c-76,0-150.8,0-225.7,0C-255.8,133.1-255.8,95.6-255.8,58z"/>
		<path class="st3" d="M767.8,170.6c-70.5,0-141,0-211.5,0c-1.7,0-3.4-0.1-5.1-0.1c0.4-3.3,3.3-3.6,5.5-4.7
			c44.4-22.3,88.9-44.5,133.3-66.7c23.7-11.9,47.5-23.8,71.2-35.6c2-1,4.1-3,6.7-1.3C767.8,98.4,767.8,134.5,767.8,170.6z"/>
		<path class="st1" d="M766.1,511.9c-9.4-5.8-19.6-10.2-29.4-15.2c-101.8-51-203.8-101.9-305.6-152.9c-1.1-0.5-2.2-1.1-3.4-1.8
			c1-1.3,2.2-0.8,3.2-0.8c22.9,0,45.8,0,68.6-0.1c2.2,0,4,0.6,6,1.5C591.6,385.9,677.8,428.9,764,472c1.2,0.6,2.3,1.7,3.8,1.5
			c0,11.9,0,23.9,0,35.8C767.8,510.4,768.8,512.4,766.1,511.9z"/>
		<path class="st1" d="M-254.9,0c0.5,1.8,2.3,1.9,3.6,2.6C-140.5,58-29.7,113.5,81.1,168.9c0.7,0.4,1.4,0.7,3.2,1.7
			c-2.3,0-3.4,0-4.6,0c-22.7,0-45.5,0-68.2,0c-2.3,0-4.3-0.4-6.4-1.4c-85.6-42.9-171.3-85.7-257-128.5c-1.2-0.6-2.3-1.6-3.8-1.5
			c0-12.2,0-24.5,0.1-36.7C-255.7,1.7-256.7,0.3-254.9,0z"/>
		<path class="st3" d="M341.5,151c61.4-30.7,122.8-61.4,184.2-92.2c37.5-18.8,75-37.5,112.4-56.2c1.5-0.8,2.9-1.7,4.4-2.6
			c3.4,0,6.8,0,10.2,0c-11,6.5-22.7,11.7-34.1,17.5c-91.5,45.8-183,91.5-274.5,137.3c-0.8,0.4-1.7,0.8-2.6,1.2
			C341.5,154.1,341.5,152.6,341.5,151z"/>
		<path class="st3" d="M767.8,62.3c-1.3,0.5-2.7,0.9-3.9,1.6c-69.8,34.9-139.6,69.8-209.4,104.7c-1.1,0.6-2.2,1.3-3.3,1.9
			c-3,0-5.9,0-9.9,0c8.7-4.4,16.6-8.4,24.5-12.4c65.9-32.9,131.8-65.9,197.6-98.8c1.4-0.7,2.6-1.6,4.3-1.3
			C767.8,59.4,767.8,60.9,767.8,62.3z"/>
	</g>
</g>
</svg>
